<svg xmlns="http://www.w3.org/2000/svg" version="1.1" xmlns:xlink="http://www.w3.org/1999/xlink" xmlns:svgjs="http://svgjs.dev/svgjs" viewBox="0 0 800 800"><defs><radialGradient id="ccclaymoji-grad-dark" r="93%" cx="20%" cy="20%">
      <stop offset="70%" stop-color="#2cde80" stop-opacity="0"></stop>
      <stop offset="97%" stop-color="#00ab52" stop-opacity="1"></stop>
    </radialGradient><radialGradient id="ccclaymoji-grad-light" r="65%" cx="28%" cy="20%">
    <stop offset="0%" stop-color="#71ffb0" stop-opacity="0.75"></stop>
    <stop offset="100%" stop-color="#2cde80" stop-opacity="0"></stop>
  </radialGradient><filter id="ccclaymoji-blur" x="-100%" y="-100%" width="400%" height="400%" filterUnits="objectBoundingBox" primitiveUnits="userSpaceOnUse" color-interpolation-filters="sRGB">
	<feGaussianBlur stdDeviation="0" x="0%" y="0%" width="100%" height="100%" in="SourceGraphic" edgeMode="none" result="blur"></feGaussianBlur></filter><filter id="inner-blur" x="-100%" y="-100%" width="400%" height="400%" filterUnits="objectBoundingBox" primitiveUnits="userSpaceOnUse" color-interpolation-filters="sRGB">
	<feGaussianBlur stdDeviation="2" x="0%" y="0%" width="100%" height="100%" in="SourceGraphic" edgeMode="none" result="blur"></feGaussianBlur></filter><filter id="eye-shadow" x="-100%" y="-100%" width="400%" height="400%" filterUnits="objectBoundingBox" primitiveUnits="userSpaceOnUse" color-interpolation-filters="sRGB">
	<feDropShadow stdDeviation="10" dx="10" dy="10" flood-color="#00042b" flood-opacity="0.2" x="0%" y="0%" width="100%" height="100%" result="dropShadow"></feDropShadow>
</filter><linearGradient gradientTransform="rotate(-25)" id="eye-light" x1="50%" y1="0%" x2="50%" y2="100%">
      <stop offset="20%" stop-color="#6884b0" stop-opacity="1"></stop>
      <stop offset="100%" stop-color="#002F54" stop-opacity="0"></stop>
    </linearGradient><linearGradient id="mouth-light" x1="50%" y1="0%" x2="50%" y2="100%">
    <stop offset="0%" stop-color="#6884b0" stop-opacity="1"></stop>
    <stop offset="100%" stop-color="#002F54" stop-opacity="0"></stop>
  </linearGradient><filter id="mouth-shadow" x="-100%" y="-100%" width="400%" height="400%" filterUnits="objectBoundingBox" primitiveUnits="userSpaceOnUse" color-interpolation-filters="sRGB">
	<feDropShadow stdDeviation="10" dx="10" dy="10" flood-color="#00042b" flood-opacity="0.2" x="0%" y="0%" width="100%" height="100%" result="dropShadow"></feDropShadow>
</filter></defs><g stroke-linecap="round"><path d="M352.5 99.9999953113155C352.5 254.48779854581682 254.48780323450137 379.7237149878654 100 379.7237149878654C-54.487122641509444 379.7237149878654 -152.5 254.48779854581682 -152.5 99.9999953113155C-152.5 -54.48712733019394 -54.487122641509444 -179.72372436523438 100 -179.72372436523438C254.48780323450137 -179.72372436523438 352.5 -54.48712733019394 352.5 99.9999953113155Z " fill="#00ab52" opacity="0" filter="url(#ccclaymoji-blur)"></path><path d="M652.5 400.0000020431997C652.5 563.2905291087268 563.2905270655272 638.1125376557353 400 638.1125376557353C236.7101923076923 638.1125376557353 147.5 563.2905291087268 147.5 400.0000020431997C147.5 236.71019435089198 236.7101923076923 161.88746643066406 400 161.88746643066406C563.2905270655272 161.88746643066406 652.5 236.71019435089198 652.5 400.0000020431997Z " fill="#2cde80"></path><path d="M652.5 400.0000020431997C652.5 563.2905291087268 563.2905270655272 638.1125376557353 400 638.1125376557353C236.7101923076923 638.1125376557353 147.5 563.2905291087268 147.5 400.0000020431997C147.5 236.71019435089198 236.7101923076923 161.88746643066406 400 161.88746643066406C563.2905270655272 161.88746643066406 652.5 236.71019435089198 652.5 400.0000020431997Z " fill="url(#ccclaymoji-grad-dark)"></path><path d="M652.5 400.0000020431997C652.5 563.2905291087268 563.2905270655272 638.1125376557353 400 638.1125376557353C236.7101923076923 638.1125376557353 147.5 563.2905291087268 147.5 400.0000020431997C147.5 236.71019435089198 236.7101923076923 161.88746643066406 400 161.88746643066406C563.2905270655272 161.88746643066406 652.5 236.71019435089198 652.5 400.0000020431997Z " fill="url(#ccclaymoji-grad-light)"></path><ellipse rx="47.5" ry="25" cx="325" cy="374" fill="#002f54" filter="url(#eye-shadow)"></ellipse><ellipse rx="47.5" ry="25" cx="325" cy="374" fill="url(#eye-light)" filter="url(#inner-blur)"></ellipse><ellipse rx="23.5" ry="34.5" cx="457" cy="375" fill="#002f54" filter="url(#eye-shadow)"></ellipse><ellipse rx="23.5" ry="34.5" cx="457" cy="375" fill="url(#eye-light)" filter="url(#inner-blur)"></ellipse><path d="M327 512.5Q377 562.5 473 512.5 " stroke-width="16" stroke="#002f54" fill="none" filter="url(#mouth-shadow)"></path><path d="M327 512.5Q377 562.5 473 512.5 " stroke-width="5.333333333333333" stroke="url(#mouth-light)" fill="none" filter="url(#inner-blur)"></path></g></svg>