<svg xmlns="http://www.w3.org/2000/svg" version="1.1" xmlns:xlink="http://www.w3.org/1999/xlink" xmlns:svgjs="http://svgjs.dev/svgjs" viewBox="0 0 800 800"><defs><linearGradient x1="50%" y1="0%" x2="50%" y2="100%" id="vvvortex-grad"><stop stop-color="hsl(162, 100%, 58%)" stop-opacity="1" offset="0%"></stop><stop stop-color="hsl(270, 73%, 53%)" stop-opacity="1" offset="100%"></stop></linearGradient></defs><g stroke="url(#vvvortex-grad)" fill="none" stroke-linecap="round"><circle r="363" cx="400" cy="400" stroke-width="11" stroke-dasharray="29 27" stroke-dashoffset="25" transform="rotate(124, 400, 400)" opacity="0.05"></circle><circle r="346.5" cx="400" cy="400" stroke-width="11" stroke-dasharray="11 40" stroke-dashoffset="25" transform="rotate(212, 400, 400)" opacity="0.10"></circle><circle r="330" cx="400" cy="400" stroke-width="10" stroke-dasharray="19 30" stroke-dashoffset="25" transform="rotate(25, 400, 400)" opacity="0.14"></circle><circle r="313.5" cx="400" cy="400" stroke-width="10" stroke-dasharray="42 31" stroke-dashoffset="25" transform="rotate(122, 400, 400)" opacity="0.19"></circle><circle r="297" cx="400" cy="400" stroke-width="10" stroke-dasharray="49 28" stroke-dashoffset="25" transform="rotate(346, 400, 400)" opacity="0.23"></circle><circle r="280.5" cx="400" cy="400" stroke-width="10" stroke-dasharray="30 53" stroke-dashoffset="25" transform="rotate(307, 400, 400)" opacity="0.28"></circle><circle r="264" cx="400" cy="400" stroke-width="9" stroke-dasharray="25 38" stroke-dashoffset="25" transform="rotate(113, 400, 400)" opacity="0.32"></circle><circle r="247.5" cx="400" cy="400" stroke-width="9" stroke-dasharray="31 46" stroke-dashoffset="25" transform="rotate(74, 400, 400)" opacity="0.37"></circle><circle r="231" cx="400" cy="400" stroke-width="9" stroke-dasharray="10 44" stroke-dashoffset="25" transform="rotate(222, 400, 400)" opacity="0.41"></circle><circle r="214.5" cx="400" cy="400" stroke-width="8" stroke-dasharray="17 31" stroke-dashoffset="25" transform="rotate(60, 400, 400)" opacity="0.46"></circle><circle r="198" cx="400" cy="400" stroke-width="8" stroke-dasharray="21 14" stroke-dashoffset="25" transform="rotate(283, 400, 400)" opacity="0.50"></circle><circle r="181.5" cx="400" cy="400" stroke-width="8" stroke-dasharray="53 20" stroke-dashoffset="25" transform="rotate(24, 400, 400)" opacity="0.55"></circle><circle r="165" cx="400" cy="400" stroke-width="8" stroke-dasharray="54 43" stroke-dashoffset="25" transform="rotate(127, 400, 400)" opacity="0.59"></circle><circle r="148.5" cx="400" cy="400" stroke-width="7" stroke-dasharray="34 28" stroke-dashoffset="25" transform="rotate(315, 400, 400)" opacity="0.64"></circle><circle r="132" cx="400" cy="400" stroke-width="7" stroke-dasharray="37 32" stroke-dashoffset="25" transform="rotate(108, 400, 400)" opacity="0.68"></circle><circle r="115.5" cx="400" cy="400" stroke-width="7" stroke-dasharray="31 14" stroke-dashoffset="25" transform="rotate(231, 400, 400)" opacity="0.73"></circle><circle r="99" cx="400" cy="400" stroke-width="6" stroke-dasharray="17 39" stroke-dashoffset="25" transform="rotate(243, 400, 400)" opacity="0.77"></circle><circle r="82.5" cx="400" cy="400" stroke-width="6" stroke-dasharray="50 46" stroke-dashoffset="25" transform="rotate(347, 400, 400)" opacity="0.82"></circle><circle r="66" cx="400" cy="400" stroke-width="6" stroke-dasharray="27 37" stroke-dashoffset="25" transform="rotate(351, 400, 400)" opacity="0.86"></circle><circle r="49.5" cx="400" cy="400" stroke-width="6" stroke-dasharray="22 30" stroke-dashoffset="25" transform="rotate(96, 400, 400)" opacity="0.91"></circle><circle r="33" cx="400" cy="400" stroke-width="5" stroke-dasharray="11 23" stroke-dashoffset="25" transform="rotate(99, 400, 400)" opacity="0.95"></circle><circle r="16.5" cx="400" cy="400" stroke-width="5" stroke-dasharray="44 23" stroke-dashoffset="25" transform="rotate(211, 400, 400)" opacity="1.00"></circle></g></svg>