<svg width="188" height="126" viewBox="0 0 188 126" fill="none" xmlns="http://www.w3.org/2000/svg">
<path d="M0.5 75.5L25.5 63L50.5 75.5L25.5 88L0.5 75.5Z" fill="#C505FF"/>
<path d="M0.5 75.5L25.5 88V113L0.5 100.5V75.5Z" fill="#FD59FF"/>
<path d="M25.5 88L50.5 75.5V100.5L25.5 113V88Z" fill="#8E00CB"/>
<path d="M50.5 50.5L75.5 38L100.5 50.5L75.5 63L50.5 50.5Z" fill="#C505FF"/>
<path d="M50.5 50.5L75.5 63V88L50.5 75.5V50.5Z" fill="#FD59FF"/>
<path d="M75.5 63L100.5 50.5V75.5L75.5 88V63Z" fill="#8E00CB"/>
<path d="M100.5 25.5L125.5 13L150.5 25.5L125.5 38L100.5 25.5Z" fill="#C505FF"/>
<path d="M100.5 25.5L125.5 38V63L100.5 50.5V25.5Z" fill="#FD59FF"/>
<path d="M125.5 38L150.5 25.5V50.5L125.5 63V38Z" fill="#8E00CB"/>
<path d="M38 13L63 0.5L88 13L63 25.5L38 13Z" fill="#C505FF"/>
<path d="M38 13L63 25.5V50.5L38 38V13Z" fill="#FD59FF"/>
<path d="M63 25.5L88 13V38L63 50.5V25.5Z" fill="#8E00CB"/>
<path d="M88 38L113 25.5L138 38L113 50.5L88 38Z" fill="#C505FF"/>
<path d="M88 38L113 50.5V75.5L88 63V38Z" fill="#FD59FF"/>
<path d="M113 50.5L138 38V63L113 75.5V50.5Z" fill="#8E00CB"/>
<path d="M75.5 88L100.5 75.5L125.5 88L100.5 100.5L75.5 88Z" fill="#C505FF"/>
<path d="M75.5 88L100.5 100.5V125.5L75.5 113V88Z" fill="#FD59FF"/>
<path d="M100.5 100.5L125.5 88V113L100.5 125.5V100.5Z" fill="#8E00CB"/>
<path d="M138 75.5L163 63L188 75.5L163 88L138 75.5Z" fill="#C505FF"/>
<path d="M138 75.5L163 88V113L138 100.5V75.5Z" fill="#FD59FF"/>
<path d="M163 88L188 75.5V100.5L163 113V88Z" fill="#8E00CB"/>
</svg>
