<svg xmlns="http://www.w3.org/2000/svg" version="1.1" xmlns:xlink="http://www.w3.org/1999/xlink" xmlns:svgjs="http://svgjs.dev/svgjs" viewBox="0 0 800 800"><defs><linearGradient x1="50%" y1="0%" x2="50%" y2="100%" id="wwwhirl-grad"><stop stop-color="hsl(162, 100%, 58%)" stop-opacity="1" offset="45%"></stop><stop stop-color="hsl(270, 73%, 53%)" stop-opacity="1" offset="100%"></stop></linearGradient></defs><g stroke-width="2" stroke="url(#wwwhirl-grad)" fill="none" stroke-linecap="round"><path d="M37.00000251770027 414.18525183043363C50.75000289917 397.89150137839204 75.50000358581553 325.8689993802535 103.000004348755 335.9752496606338C130.50000511169446 346.08149994101404 141.5000054168703 458.9827530732621 169.00000617980973 462.6952531762589C196.5000069427492 466.4077532792557 207.50000724792503 353.38275014357447 235.00000801086446 353.79525015501855C262.500008773804 354.20775016646263 273.5000090789798 458.6940030652512 301.0000098419193 464.67525323119054C328.50001060485874 470.6565033971299 339.5000109100345 390.13650116324305 367.000011672974 382.5052509515274C394.50001243591345 374.87400073981166 405.5000127410893 434.85150240378266 433.0000135040287 428.04525221495516C460.5000142669682 421.23900202612765 471.50001457214404 350.8665000737655 499.0000153350834 349.83525004515525C526.5000160980228 348.80400001654505 537.5000164031987 422.27025205473785 565.0000171661382 423.095252077626C592.5000179290777 423.92025210051423 603.5000182342535 349.87650004629967 631.000018997193 353.79525015501855C658.5000197601325 357.71400026373743 669.5000200653083 435.30525241637116 697.0000208282477 441.9052525994766C724.5000215911871 448.5052527825821 749.2500222778326 397.23150136008144 763.0000226593024 385.47525103392485 " transform="rotate(99, 400, 400)"></path><path d="M48.00000244140632 413.7553858886245C61.33333614464971 397.95538545028114 85.3333368104878 328.1153835126923 112.00000421697456 337.9153837845762C138.6666716234613 347.71538405646004 149.33333858605602 457.19538709379145 176.00000599254278 460.7953871936672C202.66667339902952 464.3953872935429 213.33334036162427 354.7953842528823 240.000007768111 355.1953842639796C266.6666751745978 355.59538427507687 277.3333421371925 456.9153870860234 304.00000954367925 462.7153872469342C330.66667695016605 468.5153874078451 341.3333439127607 390.43538524165183 368.00001131924745 383.0353850363518C394.66667872573424 375.6353848310517 405.33334568832896 433.79538644459933 432.00001309481576 427.1953862614938C458.66668050130244 420.5953860783884 469.3333474638972 352.35538418518877 496.0000148703839 351.3553841574455C522.6666822768707 350.35538412970226 533.3333492394653 421.5953861061316 560.0000166459522 422.3953861283262C586.666684052439 423.1953861505208 597.3333510150337 351.3953841585552 624.0000184215204 355.1953842639796C650.6666858280073 358.99538436940395 661.3333527906019 434.2353864568064 688.0000201970887 440.63538663436316C714.6666876035754 447.03538681192 738.6666882694134 397.31538543252543 752.0000219726569 385.9153851162523 " transform="rotate(96, 400, 400)"></path><path d="M59.00000236511238 413.32552376151267C71.9166693901294 398.0192733368675 95.16667003516005 330.36177145982833 121.00000408519412 339.8555217232158C146.83333813522813 349.3492719866033 157.1666717552418 455.4080249290181 183.0000058052758 458.8955250257727C208.83333985530987 462.38302512252733 219.1666734753235 356.20802217688737 245.00000752535757 356.59552218763787C270.8333415753916 356.98302219838837 281.1666751954052 455.13677492149276 307.0000092454393 460.7555250773752C332.83334329547336 466.3742752332576 343.16667691548696 390.73427313475787 369.00001096552097 383.56552293587345C394.83334501555504 376.39677273698896 405.1666786355687 432.73927430011327 431.0000126856027 426.34552412272984C456.8333467356368 419.9517739453464 467.16668035565044 353.84427211130924 493.0000144056845 352.875522084433C518.8333484557185 351.9067720575567 529.1666820757321 420.92052397222267 555.0000161257661 421.69552399372367C580.8333501758003 422.4705240152247 591.1666837958139 352.914272085508 617.000017845848 356.59552218763787C642.8333518958821 360.27677228976773 653.1666855158957 433.16552431193884 679.0000195659296 439.36552448394696C704.8333536159636 445.56552465595513 728.0833542609943 397.3992733196667 741.0000212860114 386.3555230132771 " transform="rotate(93, 400, 400)"></path><path d="M70.00000228881842 412.89567689318983C82.50000263560909 398.08317648224295 105.00000325983231 332.6081746657534 130.00000395341365 341.7956749206445C155.00000464699497 350.9831751755357 165.00000492442751 453.62067802303386 190.00000561800886 456.99567811666736C215.0000063115902 460.37067821030087 225.00000658902275 357.6206753596815 250.00000728260406 357.9956753700852C275.00000797618543 358.37067538048893 285.000008253618 453.35817801575126 310.0000089471993 458.7956781666052C335.00000964078066 464.2331783174592 345.00000991821315 391.033176286653 370.0000106117945 384.09567609418417C395.00001130537584 377.1581759017153 405.0000115828084 431.68317741441626 430.0000122763897 425.4956772427549C455.000012969971 419.3081770710935 465.0000132474036 355.3331752962188 490.00001394098496 354.3956752702095C515.0000146345662 353.4581752442002 525.0000149119987 420.24567709710277 550.0000156055801 420.9956771179102C575.0000162991615 421.74567713871767 585.000016576594 354.43317527124987 610.0000172701755 357.9956753700852C635.0000179637568 361.5581754689206 645.0000182411893 432.09567742586034 670.0000189347705 438.0956775923199C695.0000196283519 444.0956777587794 717.5000202525752 397.48317646559696 730.0000205993658 386.79567616909094 " transform="rotate(90, 400, 400)"></path><path d="M81.00000221252448 412.4658109513807C93.08333588108879 398.14706055413205 114.83333648450457 334.85455879819216 139.0000038216332 343.7358090445869C163.1666711587618 352.6170592909817 172.83333809361326 451.8333120435633 197.0000054307419 455.09581213407563C221.16667276787052 458.358312224588 230.833339702722 359.03330946898933 255.00000703985063 359.39580947904625C279.16667437697924 359.75830948910317 288.83334131183074 451.57956203652344 313.00000864895935 456.8358121823489C337.16667598608797 462.0920623281744 346.8333429209394 391.33206036506175 371.000010258068 384.62581017900857C395.16667759519663 377.9195599929553 404.8333445300481 430.6270614552329 429.00001186717674 424.64581128929353C453.16667920430535 418.66456112335425 462.8333461391569 356.8220594076421 487.00001347628546 355.91580938249973C511.1666808134141 355.00955935735743 520.8333477482655 419.57081114849655 545.0000150853941 420.2958111686104C569.1666824225229 421.0208111887242 578.8333493573742 355.95205938350546 603.000016694503 359.39580947904625C627.1666840316316 362.8395595745871 636.8333509664831 431.0258114662955 661.0000183036116 436.8258116272064C685.1666856407402 442.62581178811723 706.9166862441559 397.56706053804095 719.0000199127203 387.23581025141846 " transform="rotate(87, 400, 400)"></path><path d="M92.00000213623053 412.0359678977552C103.6666691265685 398.21096751420475 124.66666970917683 337.1009658188145 148.00000368985275 345.67596605671287C171.33333767052864 354.25096629461126 180.666671262799 450.04596895227627 204.00000524347493 453.1959690396675C227.33333922415085 456.34596912705877 236.66667281642125 360.44596646648074 260.00000679709717 360.79596647619087C283.33334077777306 361.145966485901 292.66667437004344 449.8009689454792 316.0000083507193 454.8759690862762C339.3333423313953 459.9509692270732 348.66667592366565 391.6309673316541 372.00000990434154 385.15596715201656C395.3333438850174 378.680966972379 404.6666774772878 429.57096838423314 428.00001145796375 423.79596822401584C451.3333454386397 418.0209680637986 460.6666790309101 358.3109664072489 484.000013011586 357.43596638297356C507.33334699226185 356.5609663586982 516.6666805845323 418.8959680880739 540.0000145652082 419.5959681074942C563.3333485458841 420.2959681269145 572.6666821381544 357.4709663839445 596.0000161188304 360.79596647619087C619.3333500995063 364.1209665684372 628.6666836917767 429.9559683949143 652.0000176724526 435.55596855027653C675.3333516531285 441.15596870563877 696.3333522357368 397.6509674986685 708.0000192260748 387.67596722192957 " transform="rotate(84, 400, 400)"></path><path d="M103.00000205993659 411.6061095853406C114.25000237204819 398.27485921548833 134.5000029338491 339.3473575806478 157.00000355807228 347.6161078100498C179.50000418229547 355.88485803945184 188.5000044319848 448.2586106022002 211.00000505620795 451.29611068647034C233.50000568043117 454.33361077074045 242.50000593012047 361.8586082051831 265.0000065543437 362.1961082145464C287.5000071785669 362.53360822390977 296.5000074282562 448.02236059564586 319.0000080524794 452.9161107314144C341.5000086767026 457.809860867183 350.50000892639184 391.9298590394574 373.00000955061506 385.6861088662355C395.5000101748383 379.44235869301355 404.5000104245276 428.51486005444434 427.00001104875076 422.9461098999491C449.500011672974 417.3773597454539 458.5000119226633 359.7998581480667 481.00001254688647 358.9561081246583C503.50001317110963 358.1123581012499 512.5000134207988 418.2211097688622 535.0000140450221 418.8961097875889C557.5000146692455 419.5711098063156 566.5000149189347 358.98985812559465 589.0000155431579 362.1961082145464C611.5000161673811 365.40235830349826 620.5000164170704 428.886110064744 643.0000170412935 434.2861102145576C665.5000176655168 439.68611036437113 685.7500182273176 397.734859200507 697.0000185394292 388.11610893365156 " transform="rotate(81, 400, 400)"></path><path d="M114.00000198364263 411.17625508762325C124.83333561752788 398.33875473146924 144.33333615852135 341.5937531571783 166.0000034262918 349.55625337808397C187.6666706940623 357.51875359898963 196.3333376011705 446.4712560668214 218.000004868941 449.3962561479704C239.6666721367115 452.32125622911946 248.3333390438197 363.2712537585827 270.0000063115902 363.59625376759925C291.6666735793607 363.9212537766158 300.33334048646896 446.24375606050984 322.0000077542394 450.9562561912499C343.6666750220099 455.66875632199 352.3333419291181 392.228754561958 374.0000091968886 386.2162543951517C395.6666764646591 380.20375422834536 404.3333433717673 427.4587555393528 426.0000106395378 422.0962553905796C447.66667790730827 416.7337552418064 456.3333448144165 361.28875370358173 478.00001208218697 360.4762536810403C499.66667934995746 359.66375365849893 508.33334625706556 417.5462552643478 530.0000135248362 418.1962552823809C551.6666807926067 418.846255300414 560.3333476997147 360.508753681942 582.0000149674854 363.59625376759925C603.6666822352558 366.6837538532566 612.3333491423641 427.81625554927103 634.0000164101345 433.0162556935359C655.666683677905 438.2162558378009 675.1666842188985 397.81875471704274 686.0000178527837 388.5562544600709 " transform="rotate(78, 400, 400)"></path><path d="M125.00000190734869 410.74640058990593C135.41666886300757 398.40265024745014 154.1666693831936 343.8401487337089 175.00000329451137 351.4963989461182C195.83333720582914 359.1526491585274 204.16667077035626 444.6839015314426 225.00000468167406 447.49640160947047C245.83333859299182 450.3089016874984 254.16667215751897 364.6838993119823 275.00000606883674 364.9963993206521C295.8333399801545 365.30889932932183 304.16667354468166 444.4651515253738 325.0000074559994 448.9964016510854C345.8333413673172 453.52765177679703 354.16667493184434 392.5276500844585 375.00000884316205 386.7463999240679C395.8333427544799 380.9651497636772 404.166676319007 426.4026510242612 425.0000102303248 421.2464008812101C445.83334414164256 416.09015073815897 454.1666777061697 362.77764925909673 475.0000116174875 361.99639923742234C495.83334552880524 361.2151492157479 504.1666790933323 416.87140075983336 525.0000130046501 417.4964007771729C545.8333469159679 418.1214007945124 554.166680480495 362.0276492382893 575.0000143918128 364.9963993206521C595.8333483031306 367.9651494030149 604.1666818676579 426.746401033798 625.0000157789755 431.74640117251425C645.8333496902933 436.7464013112305 664.5833502104794 397.9026502335785 675.0000171661382 388.9963999864902 " transform="rotate(75, 400, 400)"></path><path d="M136.00000183105476 410.3165346480968C146.00000210848728 398.46653431933925 164.00000260786584 346.08653286614765 184.00000316273093 353.43653307006053C204.00000371759597 360.7865332739735 212.000003939542 442.896535551972 232.00000449440708 445.5965356268788C252.00000504927215 448.29653570178556 260.0000052712182 366.09653342129013 280.0000058260833 366.3965334296131C300.0000063809483 366.69653343793607 308.00000660289436 442.68653554614593 328.00000715775946 447.0365356668291C348.00000771262455 451.38653578751223 356.00000793457053 392.8265341628673 376.0000084894356 387.2765340088922C396.00000904430067 381.7265338549172 404.0000092662467 425.3465350650779 424.0000098211118 420.3965349277488C444.0000103759769 415.4465347904197 452.0000105979229 364.26653337052 472.000011152788 363.5165333497125C492.000011707653 362.7665333289051 500.00001192959905 416.19653481122714 520.0000124844642 416.7965348278731C540.0000130393292 417.396534844519 548.0000132612753 363.54653335054485 568.0000138161404 366.3965334296131C588.0000143710055 369.2465335086814 596.0000145929514 425.6765350742332 616.0000151478165 430.4765352074008C636.0000157026815 435.27653534056844 654.00001620206 397.98653430602246 664.0000164794926 389.43653406881765 " transform="rotate(72, 400, 400)"></path><path d="M146.9999864959717 409.886687779774C156.5833200951779 398.5304374647147 173.83332057374906 348.3329360720727 192.9999877721614 355.3766862674893C212.16665497057375 362.4204364629058 219.8333218499387 441.10918864598773 238.99998904835104 443.6966887177734C258.1666562467634 446.28418878955904 265.8333231261284 367.5091866040843 284.9999903245407 367.79668661206045C304.1666575229531 368.08418662003663 311.83332440231806 440.9079386404044 330.9999916007304 445.07668875605907C350.1666587991428 449.2454388717138 357.83332567850766 393.1254373147624 376.99999287692003 387.806687167203C396.1666600753324 382.48793701964354 403.8333269546974 424.2904381793809 422.99999415310975 419.54668804777384C442.1666613515221 414.8029379161668 449.83332823088705 365.7554365554295 468.9999954292994 365.0366865354891C488.16666262771173 364.31793651554864 495.83332950707666 415.52168793610724 514.9999967054891 416.0966879520596C534.1666639039015 416.67168796801195 541.8333307832664 365.0654365362867 560.9999979816788 367.79668661206045C580.1666651800912 370.5279366878342 587.8333320594561 424.6066881881547 606.9999992578685 429.20668831577365C626.1666664562807 433.8066884433926 643.4166669348518 398.0704374519528 653.000000534058 389.8766872246315 " transform="rotate(69, 400, 400)"></path><path d="M157.99998641967778 409.4568294673594C167.1666533406576 398.5943291659983 183.6666537984213 350.579327833906 201.99998764038094 357.31682802082616C220.33332148234058 364.0543282077463 227.66665501912445 439.3218302959117 245.9999888610841 441.79683036457624C264.33332270304373 444.2718304332408 271.6666562398276 368.9218283427866 289.99999008178725 369.196828350416C308.3333239237469 369.4718283580454 315.6666574605308 439.12933029057115 333.99999130249046 443.1168304011973C352.3333251444501 447.1043305118236 359.6666586812339 393.4243290225657 377.99999252319355 388.3368288814219C396.3333263651532 383.2493287402781 403.6666599019371 423.2343298495921 421.99999374389677 418.6968297237071C440.3333275858564 414.1593295978221 447.6666611226403 367.2443282962473 465.9999949645999 366.55682827717385C484.3333288065595 365.8693282581003 491.6666623433434 414.84682961689555 509.9999961853031 415.3968296321543C528.3333300272627 415.9468296474131 535.6666635640465 366.5843282779368 553.9999974060063 369.196828350416C572.3333312479659 371.8093284228953 579.6666647847499 423.53682985798446 597.9999986267094 427.93682998005477C616.3333324686689 432.3368301021251 632.8333329264326 398.1543291537913 641.9999998474125 390.31682893635355 " transform="rotate(66, 400, 400)"></path><path d="M168.99998634338385 409.0269749696421C177.7499865861373 398.6582246819792 193.49998702309355 352.8257234104366 210.9999875086005 359.2569735888603C228.4999879941074 365.68822376728417 235.49998818831023 437.53447576053287 252.99998867381714 439.8969758260763C270.49998915932406 442.2594758916198 277.49998935352687 370.33447389618624 294.9999898390338 370.59697390346884C312.4999903245407 370.85947391075143 319.4999905187435 437.35072575543506 336.99999100425043 441.15697586103283C354.49999148975735 444.9632259666306 361.49999168396016 393.7232245450663 378.9999921694671 388.8669744103381C396.49999265497405 384.0107242756099 403.4999928491768 422.17822533450055 420.9999933346837 417.8469752143376C438.4999938201907 413.5157250941746 445.4999940143935 368.7332238517624 462.9999944999004 368.0769738335558C480.4999949854073 367.42072381534933 487.4999951796101 414.1719751123811 504.99999566511707 414.6969751269463C522.4999961506239 415.2219751415115 529.4999963448267 368.1032238342841 546.9999968303338 370.59697390346884C564.4999973158407 373.09072397265356 571.4999975100434 422.46697534251143 588.9999979955503 426.6669754590331C606.4999984810572 430.86697557555476 622.2499989180135 398.23822467032704 630.999999160767 390.75697446277286 " transform="rotate(63, 400, 400)"></path><path d="M179.9999862670899 408.59711284253024C188.33331983161702 398.7221125685656 203.3333202477658 355.07211135757257 219.99998737682003 361.1971115275C236.66665450587425 367.32211169742743 243.33332135749595 435.7471135957596 259.9999884865502 437.9971136581819C276.6666556156044 440.2471137206042 283.33332246722614 371.7471118201913 299.99998959628033 371.9971118271271C316.6666567253345 372.24711183406293 323.3333235769563 435.5721135909045 339.9999907060105 439.19711369147376C356.6666578350647 442.82211379204307 363.3333246866864 394.0221124381723 379.9999918157406 389.3971123098597C396.6666589447948 384.7721121815472 403.33332579641655 421.1221131900145 419.9999929254708 416.99711307557357C436.666660054525 412.87211296113264 443.3333269061467 370.22211177788284 459.9999940352009 369.5971117605433C476.6666611642551 368.9721117432038 483.33332801587676 413.49711297847216 499.99999514493106 413.9971129923438C516.6666622739854 414.4971130062154 523.333329125607 369.6221117612369 539.9999962546613 371.9971118271271C556.6666633837156 374.37211189301735 563.3333302353371 421.3971131976439 579.9999973643913 425.3971133086169C596.6666644934455 429.3971134195899 611.6666649095944 398.3221125574683 619.9999984741214 391.1971123597976 " transform="rotate(60, 400, 400)"></path><path d="M190.99998619079594 408.16725834481286C198.9166530770967 398.7860080845465 213.16665347243807 357.31850693410314 228.99998724503956 363.13725709553415C244.83332101764108 368.9560072569652 251.1666545266817 433.95975906038075 266.99998829928325 436.09725911968195C282.8333220718847 438.23475917898315 289.16665558092535 373.15975737359094 304.99998935352687 373.39725738017995C320.83332312612833 373.63475738676897 327.166656635169 433.7935090557684 342.9999904077705 437.2372591513093C358.833324180372 440.6810092468501 365.1666576894126 394.3210079606729 380.9999914620141 389.927257838776C396.8333252346156 385.533507716879 403.1666587436563 420.06600867492295 418.99999251625775 416.1472585662041C434.83332628885927 412.2285084574852 441.1666597978999 371.7110073333979 456.99999357050143 371.11725731692536C472.8333273431029 370.52350730045276 479.1666608521435 412.82225847395773 494.99999462474506 413.29725848713576C510.8333283973466 413.7722585003138 517.1666619063872 371.14100731758424 532.9999956789886 373.39725738017995C548.8333294515903 375.65350744277566 555.1666629606309 420.32725868217085 570.9999967332324 424.1272587875952C586.8333305058338 427.9272588930196 601.0833309011753 398.40600807400403 608.9999977874759 391.6372578862169 " transform="rotate(57, 400, 400)"></path><path d="M201.999986114502 407.7374076617928C209.49998632257638 398.84990741522466 222.99998669711033 359.5649063253309 237.99998711325912 365.07740647826563C252.99998752940792 370.5899066312003 258.99998769586745 432.17240833969925 273.99998811201624 434.1974083958793C288.9999885281651 436.2224084520594 294.99998869462456 374.5724067416878 309.9999891107734 374.79740674793004C324.9999895269222 375.02240675417227 330.99998969338174 432.01490833532966 345.99999010953053 435.27740842584205C360.9999905256793 438.5399085163544 366.9999906921388 394.61990729787067 381.99999110828765 390.4574071823894C396.99999152443644 386.2949070669081 402.99999169089597 419.00990797452863 417.99999210704476 415.29740787153185C432.99999252319355 411.584907768535 438.99999268965314 373.19990670361017 453.99999310580193 372.6374066880046C468.9999935219507 372.07490667239904 474.9999936884102 412.14740778414057 489.99999410455905 412.597407796625C504.9999945207079 413.0474078091095 510.9999946871674 372.65990668862884 525.9999951033162 374.79740674793004C540.9999955194651 376.93490680723124 546.9999956859245 419.2574079813951 561.9999961020733 422.8574080812708C576.9999965182221 426.45740818114655 590.499996892756 398.4899074052371 597.9999971008303 392.0774072273335 " transform="rotate(54, 400, 400)"></path><path d="M212.99998603820805 407.3075531640755C220.08331956805608 398.91380293120557 232.8333199217826 361.8113019018615 246.99998698147868 367.0175520462998C261.16665404117475 372.2238021907381 266.8333208650532 430.3850538043204 280.9999879247493 432.2975538573794C295.16665498444536 434.2100539104384 300.83332180832383 375.9850522950874 314.99998886801995 376.19755230098286C329.166655927716 376.4100523068783 334.83332275159444 430.23630380019364 348.99998981129056 433.3175538856775C363.1666568709866 436.39880397116144 368.83332369486504 394.91880282037124 382.99999075456117 390.98755271130557C397.16665781425723 387.05630260223995 402.8333246381357 417.9538034594371 416.9999916978318 414.4475533621623C431.1666587575279 410.94130326488755 436.8333255814063 374.6888022591252 450.99999264110244 374.15755224438664C465.1666597007985 373.62630222964805 470.8333265246769 411.47255327962614 484.99999358437304 411.897553291417C499.16666064406917 412.3225533032079 504.8333274679476 374.17880224497617 518.9999945276437 376.19755230098286C533.1666615873398 378.21630235698956 538.8333284112182 418.18755346592206 552.9999954709143 421.58755356024915C567.1666625306103 424.98755365457623 579.9166628843368 398.5738029217729 586.9999964141849 392.51755275375274 " transform="rotate(51, 400, 400)"></path><path d="M223.9999859619141 406.8776910369636C230.6666528135358 398.97769081779194 242.66665314645485 364.0576898489975 255.99998684969822 368.95768998493946C269.3333205529416 373.8576901208814 274.66665403423895 428.5976916395471 287.99998773748234 430.39769168948493C301.3333214407257 432.1976917394228 306.6666549220231 377.3976902190925 319.99998862526644 377.59769022464116C333.33332232850984 377.7976902301898 338.6666558098072 428.457691635663 351.99998951305054 431.3576917161185C365.33332321629393 434.2576917965739 370.6666566975913 395.2176907134773 383.9999904008347 391.51769061082723C397.3333241040781 387.8176905081772 402.66665758537545 416.89769131495103 415.99999128861884 413.5976912233983C429.3333249918621 410.29769113184557 434.66665847315954 376.17769018524575 447.9999921764029 375.67769017137414C461.3333258796463 375.17769015750247 466.6666593609436 410.7976911457172 479.99999306418704 411.19769115681447C493.33332676743044 411.59769116791176 498.6666602487278 375.69769017192897 511.99999395197113 377.59769022464116C525.3333276552146 379.49769027735334 530.666661136512 417.11769132105456 543.9999948397553 420.31769140983295C557.3333285429986 423.5176914986114 569.3333288759177 398.6576908089141 575.9999957275394 392.9576906507775 " transform="rotate(48, 400, 400)"></path><path d="M234.99998588562016 406.4478422612922C241.2499860590155 399.04159205581874 252.49998637112708 366.30409114757396 264.99998671791775 370.8978412750195C277.4999870647084 375.4915914024651 282.49998720342467 426.8103428262142 294.99998755021534 428.49784287303095C307.499987897006 430.1853429198477 312.4999880357223 378.810341494538 324.999988382513 378.9978414997399C337.49998872930365 379.18534150494173 342.49998886801995 426.6790928225729 354.9999892148106 429.39784289799985C367.4999895616013 432.11659297342686 372.49998970031754 395.51659195802375 384.9999900471082 392.0478418617893C397.4999903938989 388.57909176555495 402.49999053261513 415.8415925219054 414.9999908794058 412.7478424360747C427.49999122619647 409.654092350244 432.4999913649127 377.66659146280665 444.9999917117034 377.197841449802C457.49999205849406 376.7290914367974 462.4999921972103 410.12284236324865 474.999992544001 410.49784237365236C487.4999928907917 410.87284238405607 492.49999302950795 377.2165914503222 504.9999933762987 378.9978414997399C517.4999937230893 380.77909154915756 522.4999938618056 416.04784252762744 534.9999942085963 419.0478426108572C547.4999945553868 422.04784269408697 558.7499948674986 398.74159204749577 564.9999950408939 393.39784189924274 " transform="rotate(45, 400, 400)"></path><path d="M245.9999858093262 406.01798204152897C251.83331930449518 399.10548184975374 262.33331959579937 368.55048100205863 273.9999865861373 372.83798112100783C285.66665357647526 377.125481239957 290.33332037261044 425.02298256878953 301.9999873629484 426.5979826124851C313.6666543532864 428.17298265618075 318.3333211494216 380.22298132589174 329.9999881397595 380.3979813307468C341.66665513009747 380.57298133560187 346.33332192623266 424.900482565391 357.9999889165706 427.43798263578947C369.66665590690855 429.97548270618796 374.3333227030438 395.8154817584784 385.99998969338174 392.5779816686596C397.6666566837197 389.34048157884087 402.3333234798548 414.78548228476797 413.9999904701928 411.8979822046593C425.6666574605308 409.01048212455066 430.33332425666595 379.1554812962758 441.99999124700395 378.71798128413815C453.66665823734184 378.2804812720005 458.3333250334771 409.4479821366883 469.999992023815 409.79798214639845C481.66665901415297 410.1479821561086 486.33332581028816 378.73548128462363 497.99999280062616 380.3979813307468C509.6666597909641 382.06048137687 514.3333265870992 414.9779822901085 525.9999935774372 417.7779823677896C537.6666605677751 420.57798244547075 548.1666608590793 398.8254818419856 553.9999943542483 393.83798170361615 " transform="rotate(42, 400, 400)"></path><path d="M256.99998573303225 405.588125636463C262.41665254997486 399.169375458386 272.1666528204716 370.7968746712405 282.9999864543569 374.77812478169335C293.8333200882421 378.7593748921462 298.1666535417962 423.2356261260621 308.99998717568144 424.6981261666366C319.83332080956666 426.16062620721107 324.1666542631208 381.6356249719427 334.999987897006 381.798124976451C345.8333215308913 381.96062498095927 350.1666549844454 423.12187612290626 360.99998861833063 425.4781261882763C371.8333222522159 427.8343762536464 376.16665570577 396.11437537363037 386.99998933965526 393.1081252902272C397.8333229735405 390.10187520682405 402.1666564270946 413.72937586232774 412.9999900609798 411.04812578794116C423.83332369486504 408.3668757135546 428.1666571484192 380.64437494444223 438.9999907823044 380.23812493317155C449.83332441618967 379.8318749219008 454.16665786974374 408.77312572482526 464.999991503629 409.0981257338418C475.8333251375143 409.42312574285836 480.1666585910683 380.25437493362233 490.99999222495364 381.798124976451C501.83332585883886 383.34187501927966 506.166659312393 413.90812586728686 516.9999929462782 416.5081259394193C527.8333265801634 419.1081260115518 537.5833268506601 398.90937545117276 542.9999936676028 394.27812532268683 " transform="rotate(39, 400, 400)"></path><path d="M267.9999856567383 405.158269231397C272.99998579545456 399.2332690670182 281.9999860451438 373.04326834042246 291.99998632257643 376.7182684423789C301.9999866000089 380.39326854433534 305.99998671098194 421.4482696833346 315.9999869884145 422.798269720788C325.99998726584704 424.14826975824144 329.99998737682006 383.0482686179937 339.99998765425255 383.1982686221552C349.9999879316851 383.34826862631667 353.9999880426581 421.3432696804216 363.99998832009067 423.5182697407632C373.9999885975232 425.69326980110475 377.9999887084962 396.4132689887823 387.9999889859287 393.63826891179474C397.9999892633613 390.86326883480723 401.9999893743343 412.6732694398876 411.99998965176684 410.19826937122303C421.9999899291994 407.7232693025585 425.9999900401724 382.1332685926086 435.9999903176049 381.7582685822049C445.99999059503745 381.3832685718012 449.99999070601046 408.0982693129622 459.999990983443 408.39826932128517C469.99999126087556 408.69826932960814 473.9999913718486 381.77326858262103 483.9999916492811 383.1982686221552C493.9999919267137 384.62326866168934 497.99999203768664 412.83826944446525 507.9999923151192 415.23826951104905C517.9999925925517 417.63826957763285 526.999992842241 398.99326906035986 531.9999929809572 394.71826894175746 " transform="rotate(36, 400, 400)"></path><path d="M279.0000008392334 404.72841854837696C283.58333429972333 399.2971683976964 291.8333345286052 375.2896677316503 301.000001449585 378.65841782511035C310.1666683705648 382.02716791857046 313.8333351389567 419.6609189626531 323.0000020599366 420.89841899698536C332.16666898091637 422.13591903131766 335.83333574930833 384.4609179860906 345.00000267028815 384.5984179899053C354.166669591268 384.73591799371997 357.83333635965994 419.56466895998284 367.00000328063976 421.55841901529595C376.1666702016196 423.55216907060907 379.8333369700115 396.7121683259801 389.0000038909913 394.1684182554082C398.16667081197113 391.6246681848363 401.8333375803631 411.6171687394933 411.0000045013429 409.3484186765508C420.16667142232274 407.0796686136083 423.8333381907147 383.6221679628209 433.00000511169446 383.2784179532842C442.1666720326743 382.93466794374746 445.83333880106625 407.42341862314504 455.00000572204607 407.6984186307744C464.1666726430259 407.9734186384038 467.8333394114178 383.2921679536656 477.0000063323977 384.5984179899053C486.1666732533775 385.9046680261449 489.83334002176946 411.7684187436895 499.0000069427492 413.96841880472465C508.166673863729 416.1684188657598 516.4166740926108 399.0771683915929 521.0000075531008 395.15841828287404 " transform="rotate(33, 400, 400)"></path><path d="M290.00000076293946 404.2985564212651C294.16666754520304 399.36105628428277 301.66666775327747 377.5360556787863 310.00000131780456 380.59855576375C318.33333488233166 383.6610558487137 321.6666683081425 417.87355679787976 330.0000018726696 418.99855682909094C338.33333543719675 420.1235568603021 341.6666688630076 385.87355591009566 350.0000024275347 385.99855591356356C358.3333359920618 386.12355591703147 361.66666941787264 417.7860567954522 370.0000029823998 419.5985568457369C378.3333365469269 421.41105689602153 381.66666997273774 397.01105621908613 390.00000353726483 394.69855615492986C398.3333371017919 392.3860560907736 401.66667052760283 410.56105659500724 410.0000040921299 408.4985565377868C418.333337656657 406.4360564805663 421.6666710824679 385.11105588894145 430.00000464699497 384.7985558802717C438.3333382115221 384.4860558716019 441.6666716373329 406.7485564892361 450.00000520186006 406.9985564961719C458.3333387663872 407.2485565031077 461.666672192198 384.8110558806185 470.00000575672516 385.99855591356356C478.3333393212523 387.1860559465087 481.6666727470631 410.69855659882194 490.0000063115902 412.69855665430845C498.3333398761173 414.69855670979496 505.8333400841917 399.1610562787341 510.00000686645524 395.5985561798988 " transform="rotate(30, 400, 400)"></path><path d="M301.00000068664554 403.86870192354775C304.75000079068275 399.42495180026367 311.5000009779497 379.78245125531686 319.00000118602406 382.5387013317842C326.5000013940985 385.2949514082515 329.5000014773283 416.086202262501 337.00000168540265 417.098702290591C344.5000018934771 418.1112023186811 347.5000019767068 387.2862014634953 355.00000218478124 387.3987014666164C362.50000239285566 387.5112014697375 365.5000024760854 416.0074522603162 373.00000268415977 417.6387023055724C380.5000028922342 419.2699523508286 383.50000297546393 397.3099517415867 391.00000318353835 395.22870168384605C398.5000033916127 393.1474516261054 401.5000034748425 409.5049520799157 409.00000368291694 407.6487020284173C416.5000038909913 405.79245197691887 419.5000039742211 386.59995144445645 427.00000418229547 386.31870143665367C434.5000043903699 386.0374514288509 437.50000447359963 406.07370198472165 445.00000468167406 406.2987019909639C452.5000048897485 406.5237019972061 455.5000049729782 386.32995143696576 463.00000518105264 387.3987014666164C470.50000538912707 388.467451496267 473.5000054723568 409.6287020833489 481.0000056804312 411.4287021332868C488.5000058885056 413.22870218322464 495.25000607577255 399.2449517952699 499.0000061798097 396.0387017063181 " transform="rotate(27, 400, 400)"></path><path d="M312.00000061035155 403.43884837950475C315.33333403616246 399.4888482699189 321.3333342026219 382.0288477855217 328.0000010542436 384.47884785349265C334.6666679058653 386.92884792146367 337.333334646514 414.2988486807965 344.0000014981357 415.19884870576544C350.6666683497574 416.09884873073435 353.3333350904061 388.6988479705692 360.0000019420278 388.7988479733435C366.6666687936495 388.89884797611785 369.33333553429816 414.2288486788545 376.0000023859198 415.67884871908217C382.6666692375415 417.1288487593099 385.3333359781902 397.6088482177616 392.0000028298119 395.75884816643656C398.6666696814336 393.90884811511154 401.33333642208225 408.4488485184985 408.00000327370395 406.7988484727221C414.6666701253256 405.14884842694573 417.3333368659743 388.0888479536458 424.000003717596 387.83884794671C430.6666705692177 387.5888479397742 433.33333730986635 405.39884843388154 440.00000416148805 405.5988484394302C446.66667101310975 405.79884844497883 449.3333377537584 387.84884794698746 456.0000046053801 388.7988479733435C462.6666714570018 389.7488479996996 465.3333381976505 408.5588485215502 472.0000050492722 410.1588485659394C478.66667190089385 411.75884861032864 484.6666720673534 399.32884826548 488.0000054931642 396.4788481864117 " transform="rotate(24, 400, 400)"></path><path d="M323.0000005340576 403.0089929281131C325.9166672816421 399.5527428322255 331.1666674272942 384.27524240837795 337.0000009224632 386.41899246785255C342.83333441763216 388.56274252732715 345.1666678156997 412.5114931917434 351.0000013108687 413.2989932135912C356.8333348060377 414.086493235439 359.16666820410535 390.1114925702945 365.0000016992743 390.19899257272203C370.8333351944433 390.28649257514957 373.16666859251086 412.4502431900441 379.00000208767983 413.71899322524337C384.8333355828488 414.98774326044264 387.1666689809164 397.90774278658785 393.0000024760854 396.28899274167844C398.83333597125437 394.67024269676904 401.16666936932194 407.3927430497326 407.00000286449097 405.9489930096783C412.83333635965994 404.50524296962396 415.1666697577275 389.57774255548657 421.0000032528965 389.35899254941774C426.83333674806545 389.14024254334885 429.1666701461331 404.7239929756928 435.00000364130204 404.89899298054786C440.833337136471 405.0739929854029 443.16667053453864 389.3677425496605 449.0000040297076 390.19899257272203C454.8333375248766 391.03024259578365 457.16667092294415 407.48899305240286 463.0000044181131 408.88899309124344C468.8333379132821 410.288993130084 474.0833380589342 399.41274282834144 477.0000048065187 396.9189927591567 " transform="rotate(21, 400, 400)"></path><path d="M334.0000004577637 402.57913461569854C336.5000005271218 399.6166345335091 341.00000065196645 386.5216341702112 346.00000079068275 388.35913422118944C351.000000929399 390.19663427216767 353.0000009848855 410.7241348416673 358.0000011236018 411.39913486039404C363.00000126231805 412.0741348791207 365.00000131780456 391.52413430899685 370.0000014565208 391.5991343110776C375.0000015952371 391.67413431315833 377.00000165072356 410.6716348402108 382.00000178943986 411.75913487038156C387.00000192815617 412.8466349005524 389.0000019836426 398.20663449439115 394.00000212235886 396.81913445589737C399.00000226107517 395.43163441740364 401.0000023165617 406.3366347199438 406.0000024552779 405.0991346856115C411.0000025939942 403.86163465127925 413.00000264948073 391.0666342963043 418.000002788197 390.87913429110245C423.0000029269132 390.6916342859006 425.0000029823998 404.0491346564811 430.00000312111604 404.1991346606426C435.0000032598323 404.34913466480407 437.00000331531885 390.88663429131054 442.0000034540351 391.5991343110776C447.00000359275134 392.31163433084464 449.00000364823785 406.4191347222326 454.00000378695415 407.6191347555245C459.0000039256704 408.8191347888164 463.50000405051503 399.49663453017996 466.00000411987315 397.35913447087876 " transform="rotate(18, 400, 400)"></path><path d="M344.99999656677244 402.1492801179812C347.08332995790425 399.68053004949 350.83333006194147 388.7680297467418 354.99999684420504 390.29927978922365C359.16666362646856 391.83052983170546 360.833330339374 408.93678030628854 364.99999712163753 409.4992803218941C369.1666639039011 410.06178033749967 370.8333306168065 392.93677986239646 374.9999973990701 392.9992798641304C379.16666418133366 393.06177986586437 380.83333089423905 408.8930303050748 384.99999767650263 409.7992803302171C389.16666445876615 410.70553035535943 390.8333311716716 398.5055300168917 394.9999979539351 397.34927998481356C399.1666647361987 396.1930299527354 400.83333144910415 405.28053020485225 404.9999982313677 404.249280176242C409.16666501363125 403.2180301476318 410.8333317265367 392.55552985181936 414.9999985088002 392.3992798474845C419.1666652910638 392.2430298431496 420.8333320039692 403.3742801519667 424.99999878623277 403.4992801554346C429.16666556849634 403.6242801589025 430.83333228140174 392.4055298476579 434.9999990636653 392.9992798641304C439.1666658459289 393.59302988060296 440.8333325588343 405.3492802067596 444.9999993410978 406.3492802345029C449.1666661233614 407.3492802622461 452.9166662273986 399.5805300467157 454.99999961853035 397.799279997298 " transform="rotate(15, 400, 400)"></path><path d="M355.9999964904785 401.71942562026385C357.66666320338396 399.7444255654709 360.6666632866137 391.01442532327235 363.99999671242455 392.2394253572578C367.3333301382354 393.4644253912433 368.66666350855974 407.1494257709097 371.9999969343706 407.59942578339417C375.33333036018144 408.0494257958787 376.6666637305058 394.3494254157961 379.9999971563166 394.39942541718324C383.3333305821275 394.4494254185704 384.6666639524518 407.1144257699387 387.9999973782626 407.8394257900526C391.3333308040735 408.5644258101664 392.66666417439785 398.80442553939224 395.99999760020864 397.87942551372976C399.33333102601955 396.9544254880673 400.6666643963439 404.2244256897607 403.9999978221547 403.3994256668725C407.33333124796553 402.57442564398434 408.6666646182899 394.0444254073344 411.9999980441007 393.91942540386646C415.33333146991157 393.79442540039855 416.6666648402359 402.69942564745224 419.99999826604676 402.79942565022657C423.3333316918576 402.8994256530009 424.66666506218195 393.9244254040052 427.9999984879928 394.39942541718324C431.33333191380365 394.87442543036127 432.666665284128 404.2794256912866 435.99999870993884 405.0794257134812C439.33333213574963 405.8794257356758 442.3333322189794 399.6644255632515 443.9999989318849 398.23942552371733 " transform="rotate(12, 400, 400)"></path><path d="M366.9999964141846 401.2895692151979C368.2499964488636 399.8083191741032 370.499996511286 393.26081899245423 372.9999965806441 394.1795690179434C375.49999665000223 395.09831904343247 376.49999667774546 405.3620693281823 378.99999674710364 405.69956933754565C381.49999681646176 406.037069346909 382.49999684420504 395.76206906184706 384.9999969135631 395.79956906288743C387.4999969829213 395.8370690639278 388.4999970106645 405.33581932745403 390.9999970800227 405.8795693425394C393.4999971493808 406.4233193576248 394.49999717712404 399.1033191545442 396.99999724648217 398.4095691352973C399.49999731584035 397.71581911605045 400.4999973435836 403.1683192673205 402.9999974129417 402.5495692501544C405.4999974822998 401.93081923298826 406.4999975100431 395.5333190555008 408.9999975794012 395.43956905289986C411.49999764875935 395.3458190502989 412.49999767650263 402.0245692355892 414.99999774586075 402.0995692376699C417.4999978152189 402.17456923975067 418.49999784296216 395.4433190530039 420.9999979123203 395.79956906288743C423.4999979816784 396.15581907277095 424.4999980094217 403.2095692684649 426.9999980787798 403.8095692851109C429.49999814813793 404.40956930175685 431.74999821056025 399.7483191724386 432.99999824523934 398.679569142788 " transform="rotate(9, 400, 400)"></path><path d="M378.0000001525879 400.8597128101319C378.8333335090406 399.87221278273546 380.3333335506555 395.5072126616362 382.0000002635609 396.1197126786289C383.66666697646633 396.7322126956216 384.3333336616285 403.57471288545486 386.0000003745339 403.7997128916971C387.66666708743935 404.0247128979393 388.3333337726015 397.17471270789804 390.0000004855069 397.1997127085916C391.66666719841237 397.2247127092852 392.33333388357454 403.5572128849694 394.00000059647994 403.9197128950263C395.6666673093854 404.2822129050832 396.33333399454756 399.4022127696961 398.00000070745295 398.9397127568649C399.6666674203584 398.47721274403364 400.3333341055206 402.11221284488033 402.000000818426 401.69971283343625C403.6666675313314 401.28721282199217 404.33333421649354 397.0222127036672 406.000000929399 396.95971270193326C407.66666764230445 396.8972127001993 408.33333432746656 401.3497128237261 410.000001040372 401.3997128251133C411.66666775327747 401.44971282650044 412.3333344384396 396.9622127020026 414.00000115134503 397.1997127085916C415.6666678642505 397.43721271518064 416.3333345494126 402.1397128456433 418.00000126231805 402.5397128567406C419.66666797522345 402.9397128678379 421.16666801683834 399.83221278162574 422.00000137329107 399.11971276185864 " transform="rotate(6, 400, 400)"></path><path d="M389.00000007629393 400.42985640506595C389.4166667545203 399.93610639136773 390.1666667753277 397.75360633081806 391.00000013178044 398.0598563393145C391.83333348823317 398.36610634781084 392.1666668308143 401.7873564427274 393.00000018726695 401.89985644584857C393.8333335437197 402.0123564489697 394.16666688630073 398.587356353949 395.00000024275346 398.5998563542958C395.8333335992062 398.6123563546426 396.1666669417873 401.77860644248466 397.00000029823997 401.9598564475131C397.8333336546927 402.14110645254164 398.16666699727375 399.70110638484806 399.0000003537265 399.46985637843244C399.8333337101792 399.2386063720168 400.16666705276026 401.05610642244017 401.000000409213 400.8498564167181C401.8333337656657 400.6436064109961 402.16666710824677 398.5111063518336 403.0000004646995 398.4798563509666C403.8333338211522 398.4486063500996 404.1666671637333 400.67485641186306 405.000000520186 400.69985641255664C405.83333387663873 400.7248564132502 406.1666672192198 398.4811063510013 407.0000005756725 398.5998563542958C407.83333393212524 398.7186063575903 408.1666672747063 401.06985642282166 409.000000631159 401.2698564283703C409.8333339876117 401.46985643391895 410.5833340084192 399.91610639081284 411.00000068664554 399.5598563809293 " transform="rotate(3, 400, 400)"></path></g></svg>