<svg xmlns="http://www.w3.org/2000/svg" version="1.1" xmlns:xlink="http://www.w3.org/1999/xlink" xmlns:svgjs="http://svgjs.dev/svgjs" viewBox="0 0 800 800"><defs><linearGradient x1="50%" y1="0%" x2="50%" y2="100%" id="ggglitch-grad"><stop stop-color="hsl(162, 100%, 58%)" stop-opacity="1" offset="45%"></stop><stop stop-color="hsl(270, 73%, 53%)" stop-opacity="1" offset="100%"></stop></linearGradient><clipPath id="SvgjsClipPath1496"><rect width="9.876543209876543" height="800" x="0" y="0"></rect><rect width="9.876543209876543" height="800" x="19.753086419753085" y="0"></rect><rect width="9.876543209876543" height="800" x="39.50617283950617" y="0"></rect><rect width="9.876543209876543" height="800" x="59.25925925925925" y="0"></rect><rect width="9.876543209876543" height="800" x="79.01234567901234" y="0"></rect><rect width="9.876543209876543" height="800" x="98.76543209876543" y="0"></rect><rect width="9.876543209876543" height="800" x="118.5185185185185" y="0"></rect><rect width="9.876543209876543" height="800" x="138.2716049382716" y="0"></rect><rect width="9.876543209876543" height="800" x="158.02469135802468" y="0"></rect><rect width="9.876543209876543" height="800" x="177.77777777777777" y="0"></rect><rect width="9.876543209876543" height="800" x="197.53086419753086" y="0"></rect><rect width="9.876543209876543" height="800" x="217.28395061728395" y="0"></rect><rect width="9.876543209876543" height="800" x="237.037037037037" y="0"></rect><rect width="9.876543209876543" height="800" x="256.7901234567901" y="0"></rect><rect width="9.876543209876543" height="800" x="276.5432098765432" y="0"></rect><rect width="9.876543209876543" height="800" x="296.2962962962963" y="0"></rect><rect width="9.876543209876543" height="800" x="316.04938271604937" y="0"></rect><rect width="9.876543209876543" height="800" x="335.8024691358024" y="0"></rect><rect width="9.876543209876543" height="800" x="355.55555555555554" y="0"></rect><rect width="9.876543209876543" height="800" x="375.3086419753086" y="0"></rect><rect width="9.876543209876543" height="800" x="395.0617283950617" y="0"></rect><rect width="9.876543209876543" height="800" x="414.8148148148148" y="0"></rect><rect width="9.876543209876543" height="800" x="434.5679012345679" y="0"></rect><rect width="9.876543209876543" height="800" x="454.32098765432096" y="0"></rect><rect width="9.876543209876543" height="800" x="474.074074074074" y="0"></rect><rect width="9.876543209876543" height="800" x="493.82716049382714" y="0"></rect><rect width="9.876543209876543" height="800" x="513.5802469135803" y="0"></rect><rect width="9.876543209876543" height="800" x="533.3333333333333" y="0"></rect><rect width="9.876543209876543" height="800" x="553.0864197530864" y="0"></rect><rect width="9.876543209876543" height="800" x="572.8395061728395" y="0"></rect><rect width="9.876543209876543" height="800" x="592.5925925925926" y="0"></rect><rect width="9.876543209876543" height="800" x="612.3456790123456" y="0"></rect><rect width="9.876543209876543" height="800" x="632.0987654320987" y="0"></rect><rect width="9.876543209876543" height="800" x="651.8518518518518" y="0"></rect><rect width="9.876543209876543" height="800" x="671.6049382716049" y="0"></rect><rect width="9.876543209876543" height="800" x="691.358024691358" y="0"></rect><rect width="9.876543209876543" height="800" x="711.1111111111111" y="0"></rect><rect width="9.876543209876543" height="800" x="730.8641975308642" y="0"></rect><rect width="9.876543209876543" height="800" x="750.6172839506172" y="0"></rect><rect width="9.876543209876543" height="800" x="770.3703703703703" y="0"></rect><rect width="9.876543209876543" height="800" x="790.1234567901234" y="0"></rect><rect width="9.876543209876543" height="800" x="809.8765432098764" y="0"></rect><rect width="9.876543209876543" height="800" x="829.6296296296296" y="0"></rect><rect width="9.876543209876543" height="800" x="849.3827160493827" y="0"></rect><rect width="9.876543209876543" height="800" x="869.1358024691358" y="0"></rect><rect width="9.876543209876543" height="800" x="888.8888888888888" y="0"></rect><rect width="9.876543209876543" height="800" x="908.6419753086419" y="0"></rect><rect width="9.876543209876543" height="800" x="928.395061728395" y="0"></rect><rect width="9.876543209876543" height="800" x="948.148148148148" y="0"></rect><rect width="9.876543209876543" height="800" x="967.9012345679012" y="0"></rect><rect width="9.876543209876543" height="800" x="987.6543209876543" y="0"></rect><rect width="9.876543209876543" height="800" x="1007.4074074074074" y="0"></rect><rect width="9.876543209876543" height="800" x="1027.1604938271605" y="0"></rect><rect width="9.876543209876543" height="800" x="1046.9135802469136" y="0"></rect><rect width="9.876543209876543" height="800" x="1066.6666666666665" y="0"></rect><rect width="9.876543209876543" height="800" x="1086.4197530864196" y="0"></rect><rect width="9.876543209876543" height="800" x="1106.1728395061727" y="0"></rect><rect width="9.876543209876543" height="800" x="1125.9259259259259" y="0"></rect><rect width="9.876543209876543" height="800" x="1145.679012345679" y="0"></rect><rect width="9.876543209876543" height="800" x="1165.432098765432" y="0"></rect><rect width="9.876543209876543" height="800" x="1185.1851851851852" y="0"></rect><rect width="9.876543209876543" height="800" x="1204.938271604938" y="0"></rect><rect width="9.876543209876543" height="800" x="1224.6913580246912" y="0"></rect><rect width="9.876543209876543" height="800" x="1244.4444444444443" y="0"></rect><rect width="9.876543209876543" height="800" x="1264.1975308641975" y="0"></rect><rect width="9.876543209876543" height="800" x="1283.9506172839506" y="0"></rect><rect width="9.876543209876543" height="800" x="1303.7037037037037" y="0"></rect><rect width="9.876543209876543" height="800" x="1323.4567901234568" y="0"></rect><rect width="9.876543209876543" height="800" x="1343.2098765432097" y="0"></rect><rect width="9.876543209876543" height="800" x="1362.9629629629628" y="0"></rect><rect width="9.876543209876543" height="800" x="1382.716049382716" y="0"></rect><rect width="9.876543209876543" height="800" x="1402.469135802469" y="0"></rect><rect width="9.876543209876543" height="800" x="1422.2222222222222" y="0"></rect><rect width="9.876543209876543" height="800" x="1441.9753086419753" y="0"></rect><rect width="9.876543209876543" height="800" x="1461.7283950617284" y="0"></rect><rect width="9.876543209876543" height="800" x="1481.4814814814813" y="0"></rect><rect width="9.876543209876543" height="800" x="1501.2345679012344" y="0"></rect><rect width="9.876543209876543" height="800" x="1520.9876543209875" y="0"></rect><rect width="9.876543209876543" height="800" x="1540.7407407407406" y="0"></rect><rect width="9.876543209876543" height="800" x="1560.4938271604938" y="0"></rect><rect width="9.876543209876543" height="800" x="1580.2469135802469" y="0"></rect><rect width="9.876543209876543" height="800" x="1600" y="0"></rect></clipPath><clipPath id="SvgjsClipPath1497"><rect width="9.876543209876543" height="800" x="9.876543209876543" y="0"></rect><rect width="9.876543209876543" height="800" x="29.629629629629626" y="0"></rect><rect width="9.876543209876543" height="800" x="49.38271604938271" y="0"></rect><rect width="9.876543209876543" height="800" x="69.1358024691358" y="0"></rect><rect width="9.876543209876543" height="800" x="88.88888888888889" y="0"></rect><rect width="9.876543209876543" height="800" x="108.64197530864196" y="0"></rect><rect width="9.876543209876543" height="800" x="128.39506172839506" y="0"></rect><rect width="9.876543209876543" height="800" x="148.14814814814815" y="0"></rect><rect width="9.876543209876543" height="800" x="167.90123456790124" y="0"></rect><rect width="9.876543209876543" height="800" x="187.65432098765433" y="0"></rect><rect width="9.876543209876543" height="800" x="207.40740740740742" y="0"></rect><rect width="9.876543209876543" height="800" x="227.16049382716048" y="0"></rect><rect width="9.876543209876543" height="800" x="246.9135802469136" y="0"></rect><rect width="9.876543209876543" height="800" x="266.66666666666663" y="0"></rect><rect width="9.876543209876543" height="800" x="286.41975308641975" y="0"></rect><rect width="9.876543209876543" height="800" x="306.1728395061728" y="0"></rect><rect width="9.876543209876543" height="800" x="325.92592592592587" y="0"></rect><rect width="9.876543209876543" height="800" x="345.679012345679" y="0"></rect><rect width="9.876543209876543" height="800" x="365.43209876543204" y="0"></rect><rect width="9.876543209876543" height="800" x="385.18518518518516" y="0"></rect><rect width="9.876543209876543" height="800" x="404.9382716049382" y="0"></rect><rect width="9.876543209876543" height="800" x="424.69135802469134" y="0"></rect><rect width="9.876543209876543" height="800" x="444.4444444444444" y="0"></rect><rect width="9.876543209876543" height="800" x="464.19753086419746" y="0"></rect><rect width="9.876543209876543" height="800" x="483.9506172839506" y="0"></rect><rect width="9.876543209876543" height="800" x="503.7037037037037" y="0"></rect><rect width="9.876543209876543" height="800" x="523.4567901234567" y="0"></rect><rect width="9.876543209876543" height="800" x="543.2098765432098" y="0"></rect><rect width="9.876543209876543" height="800" x="562.9629629629629" y="0"></rect><rect width="9.876543209876543" height="800" x="582.716049382716" y="0"></rect><rect width="9.876543209876543" height="800" x="602.469135802469" y="0"></rect><rect width="9.876543209876543" height="800" x="622.2222222222222" y="0"></rect><rect width="9.876543209876543" height="800" x="641.9753086419753" y="0"></rect><rect width="9.876543209876543" height="800" x="661.7283950617283" y="0"></rect><rect width="9.876543209876543" height="800" x="681.4814814814814" y="0"></rect><rect width="9.876543209876543" height="800" x="701.2345679012345" y="0"></rect><rect width="9.876543209876543" height="800" x="720.9876543209876" y="0"></rect><rect width="9.876543209876543" height="800" x="740.7407407407406" y="0"></rect><rect width="9.876543209876543" height="800" x="760.4938271604938" y="0"></rect><rect width="9.876543209876543" height="800" x="780.2469135802469" y="0"></rect><rect width="9.876543209876543" height="800" x="799.9999999999999" y="0"></rect><rect width="9.876543209876543" height="800" x="819.753086419753" y="0"></rect><rect width="9.876543209876543" height="800" x="839.5061728395061" y="0"></rect><rect width="9.876543209876543" height="800" x="859.2592592592592" y="0"></rect><rect width="9.876543209876543" height="800" x="879.0123456790122" y="0"></rect><rect width="9.876543209876543" height="800" x="898.7654320987654" y="0"></rect><rect width="9.876543209876543" height="800" x="918.5185185185185" y="0"></rect><rect width="9.876543209876543" height="800" x="938.2716049382715" y="0"></rect><rect width="9.876543209876543" height="800" x="958.0246913580246" y="0"></rect><rect width="9.876543209876543" height="800" x="977.7777777777777" y="0"></rect><rect width="9.876543209876543" height="800" x="997.5308641975308" y="0"></rect><rect width="9.876543209876543" height="800" x="1017.283950617284" y="0"></rect><rect width="9.876543209876543" height="800" x="1037.0370370370372" y="0"></rect><rect width="9.876543209876543" height="800" x="1056.79012345679" y="0"></rect><rect width="9.876543209876543" height="800" x="1076.5432098765432" y="0"></rect><rect width="9.876543209876543" height="800" x="1096.2962962962963" y="0"></rect><rect width="9.876543209876543" height="800" x="1116.0493827160494" y="0"></rect><rect width="9.876543209876543" height="800" x="1135.8024691358025" y="0"></rect><rect width="9.876543209876543" height="800" x="1155.5555555555557" y="0"></rect><rect width="9.876543209876543" height="800" x="1175.3086419753088" y="0"></rect><rect width="9.876543209876543" height="800" x="1195.0617283950617" y="0"></rect><rect width="9.876543209876543" height="800" x="1214.8148148148148" y="0"></rect><rect width="9.876543209876543" height="800" x="1234.567901234568" y="0"></rect><rect width="9.876543209876543" height="800" x="1254.320987654321" y="0"></rect><rect width="9.876543209876543" height="800" x="1274.0740740740741" y="0"></rect><rect width="9.876543209876543" height="800" x="1293.8271604938273" y="0"></rect><rect width="9.876543209876543" height="800" x="1313.5802469135804" y="0"></rect><rect width="9.876543209876543" height="800" x="1333.3333333333333" y="0"></rect><rect width="9.876543209876543" height="800" x="1353.0864197530864" y="0"></rect><rect width="9.876543209876543" height="800" x="1372.8395061728395" y="0"></rect><rect width="9.876543209876543" height="800" x="1392.5925925925926" y="0"></rect><rect width="9.876543209876543" height="800" x="1412.3456790123457" y="0"></rect><rect width="9.876543209876543" height="800" x="1432.0987654320988" y="0"></rect><rect width="9.876543209876543" height="800" x="1451.851851851852" y="0"></rect><rect width="9.876543209876543" height="800" x="1471.6049382716049" y="0"></rect><rect width="9.876543209876543" height="800" x="1491.358024691358" y="0"></rect><rect width="9.876543209876543" height="800" x="1511.111111111111" y="0"></rect><rect width="9.876543209876543" height="800" x="1530.8641975308642" y="0"></rect><rect width="9.876543209876543" height="800" x="1550.6172839506173" y="0"></rect><rect width="9.876543209876543" height="800" x="1570.3703703703704" y="0"></rect><rect width="9.876543209876543" height="800" x="1590.1234567901236" y="0"></rect></clipPath></defs><g stroke-width="43" stroke="url(#ggglitch-grad)" fill="none"><circle r="338.5" cx="400" cy="400" fill="none" opacity="0.33" clip-path="url(&quot;#SvgjsClipPath1496&quot;)"></circle><circle r="249.5" cx="400" cy="400" fill="none" opacity="0.33" clip-path="url(&quot;#SvgjsClipPath1496&quot;)"></circle><circle r="160.5" cx="400" cy="400" fill="none" opacity="0.33" clip-path="url(&quot;#SvgjsClipPath1496&quot;)"></circle><circle r="71.5" cx="400" cy="400" fill="none" opacity="0.33" clip-path="url(&quot;#SvgjsClipPath1496&quot;)"></circle><circle r="378.5" cx="400" cy="400" fill="none" clip-path="url(&quot;#SvgjsClipPath1497&quot;)"></circle><circle r="289.5" cx="400" cy="400" fill="none" clip-path="url(&quot;#SvgjsClipPath1497&quot;)"></circle><circle r="200.5" cx="400" cy="400" fill="none" clip-path="url(&quot;#SvgjsClipPath1497&quot;)"></circle><circle r="111.5" cx="400" cy="400" fill="none" clip-path="url(&quot;#SvgjsClipPath1497&quot;)"></circle></g></svg>